<?xml version="1.0" encoding="UTF-8" standalone="no"?>
<svg
   width="180.04384"
   height="50"
   viewBox="0 0 180.04384 50"
   fill="none"
   version="1.1"
   id="svg2"
   sodipodi:docname="logo.svg"
   xml:space="preserve"
   inkscape:version="1.3.2 (091e20e, 2023-11-25, custom)"
   xmlns:inkscape="http://www.inkscape.org/namespaces/inkscape"
   xmlns:sodipodi="http://sodipodi.sourceforge.net/DTD/sodipodi-0.dtd"
   xmlns="http://www.w3.org/2000/svg"
   xmlns:svg="http://www.w3.org/2000/svg"><defs
     id="defs2" /><sodipodi:namedview
     id="namedview2"
     pagecolor="#ffffff"
     bordercolor="#000000"
     borderopacity="0.25"
     inkscape:showpageshadow="2"
     inkscape:pageopacity="0.0"
     inkscape:pagecheckerboard="0"
     inkscape:deskcolor="#d1d1d1"
     showgrid="false"
     inkscape:zoom="5.2530488"
     inkscape:cx="141.91759"
     inkscape:cy="51.684272"
     inkscape:window-width="2400"
     inkscape:window-height="1261"
     inkscape:window-x="-9"
     inkscape:window-y="-9"
     inkscape:window-maximized="1"
     inkscape:current-layer="svg2" /><path
     d="m 26.0039,9.5625 h 5.8594 V 29.25 c 0,1.8099 -0.4037,3.4115 -1.211,4.8047 -0.7942,1.3802 -1.9205,2.4479 -3.3789,3.2031 -1.4583,0.7552 -3.1054,1.1328 -4.9414,1.1328 -3.0078,0 -5.3515,-0.7617 -7.0312,-2.2851 -1.6797,-1.5365 -2.5196,-3.7045 -2.5196,-6.5039 h 5.8985 c 0,1.3932 0.293,2.4218 0.8789,3.0859 0.5859,0.6641 1.5104,0.9961 2.7734,0.9961 1.1198,0 2.0118,-0.3841 2.6758,-1.1524 0.6641,-0.7682 0.9961,-1.8619 0.9961,-3.2812 z"
     fill="#ffffff"
     id="path2" /><text
     xml:space="preserve"
     style="font-size:38.1738px;text-align:center;text-anchor:middle;fill:#124e34;fill-opacity:1;stroke-width:0.796537"
     x="121.73933"
     y="38.64415"
     id="text2"><tspan
       sodipodi:role="line"
       id="tspan2"
       x="121.73933"
       y="38.64415"
       style="font-style:normal;font-variant:normal;font-weight:normal;font-stretch:normal;font-family:'DejaVu Sans';-inkscape-font-specification:'DejaVu Sans';fill:#124e34;fill-opacity:1;stroke-width:0.796537">Artesa</tspan></text><rect
     style="fill:#124e34;fill-opacity:1;stroke-width:1.00157"
     id="rect2"
     width="50"
     height="50"
     x="0"
     y="0"
     ry="9.5625" /><text
     xml:space="preserve"
     style="font-style:normal;font-variant:normal;font-weight:normal;font-stretch:normal;font-size:48px;font-family:'DejaVu Sans';-inkscape-font-specification:'DejaVu Sans';text-align:center;text-anchor:middle;fill:#ffffff;fill-opacity:1;stroke-width:1.00157"
     x="25.011719"
     y="42.496094"
     id="text3"><tspan
       sodipodi:role="line"
       id="tspan3"
       x="25.011719"
       y="42.496094">A</tspan></text></svg>
